<?xml version="1.0" encoding="utf-8"?>
<!-- Generator: Adobe Illustrator 25.2.3, SVG Export Plug-In . SVG Version: 6.00 Build 0)  -->
<svg version="1.1" id="Camada_1" xmlns="http://www.w3.org/2000/svg" xmlns:xlink="http://www.w3.org/1999/xlink" x="0px" y="0px"
	 viewBox="0 0 846 1280" style="enable-background:new 0 0 846 1280;" xml:space="preserve">
<g transform="translate(0.000000,1280.000000) scale(0.100000,-0.100000)">
	<path d="M3885,11848.8c-234-12-454-27-625-45c-1251-125-2233-465-2653-918c-134-146-194-247-222-381c-18-83-34-442-35-777v-201
		l-46-54c-102-119-201-296-248-446c-51-164-51-132-50-4132C6,2445.8,10,2081,17,1958c13-217,32-290,120-461
		c175-340,527-644,1028-889C1834,282,2595,100,3675,7c210-18,1095,1,1435,31c490,43,1106,170,1575,325c259,85,397,141,620,251
		c321,157,535,304,735,504c184,183,288,345,361,560c28,85,33,114,42,280c7,119,11,551.8,11,2936.8c1,3837,0,3965-40,4100
		c-42,144-139,331-233,449l-51,64v316c0,528-19,711-88,847c-66,129-258,316-467,456c-126,84-395,221-555,284
		c-572,222-1266,362-2115,424C4765,11845.8,4017,11855.8,3885,11848.8z M4745,11504.8c672-33,1231-116,1735-260
		c642-184,1135-470,1266-734c37-76,39-84,39-176c0-91-2-100-37-171c-212-424-1024-772-2203-943c-274-39-409-52-720-66
		c-290-13-1145-13-1316,0c-857,67-1670,260-2199,524c-306,153-489,305-573,476c-30,60-32,72-32,170c0,102,1,109,37,181
		c84,169,273,322,599,485c592,295,1441,475,2449,517C3969,11515.8,4560,11513.8,4745,11504.8z M7794,9627.8c-14-141-70-239-210-373
		c-316-300-965-547-1825-694c-405-70-607-89-1144-106c-796-26-1241-3-1840,96c-838,137-1562,409-1878,704c-74,69-154,175-178,236
		c-13,34-28,194-17,194c4,0,9-4,13-10c12-19,194-149,290-207c384-231,908-403,1635-537c489-90,776-110,1595-110
		c764,0,1023,14,1425,79c964,156,1683,414,2075,744c33,28,61,51,63,51C7799,9694.8,7797,9664.8,7794,9627.8z M611,9081.8
		c114-113,228-207,330-273c447-287,1249-527,2119-634c360-44,486-51,1015-57c561-6,843,3,1166,37c1297,137,2333,515,2697,984
		c12,16,24,27,26,25c13-15,79-125,105-176l0,0c20.4-40.8,31-85.7,31-131.3V4888.8V1909.2c0-74.4-17.9-147.7-52.2-213.8l-2.8-5.5
		c-122-239-299-419-594-606c-561-355-1364-597-2351-708c-158-17-266-21-747-25c-569-5-794,2-1071,32C2142,510,1136,885,654,1363
		c-107,106-177,203-245,337h0c-32.2,64.4-49,135.5-49,207.6v2982.3v3989c0,30.9,7.2,61.3,21,89h0c7.9,16.3,37.9,69.4,66.5,119
		c29,50.3,97.6,59.7,139,19C594.4,9098.1,602.6,9090.1,611,9081.8z"/>
</g>
<g>
	<path d="M188.7,944l203-108.3l45.6,13.9l-56.9,30.3l96.6,180.9l138.5-73.9c42.2-22.5,62.1-70.4,51.2-114.8c1.1-0.6,2.2-1.1,3.3-1.6
		c9.3-5,18.1-10.8,26.3-17.5c20.9,62-5.4,131.9-64.9,163.7L317,1184.4c-66.3,35.4-149,10.2-184.3-56S122.5,979.4,188.7,944z
		 M327.7,1138.6l99.5-53.1c7-3.8,9.7-12.5,5.9-19.5s-12.5-9.7-19.5-5.9l-99.5,53.1c-7,3.8-9.7,12.5-5.9,19.5
		C312,1139.7,320.7,1142.3,327.7,1138.6z M277,1165.7l4.9-2.6c7-3.8,9.7-12.5,5.9-19.5s-12.5-9.7-19.5-5.9l-4.9,2.6
		c-7,3.8-9.7,12.5-5.9,19.5C261.2,1166.8,269.9,1169.4,277,1165.7z M122.2,583.7c10.5-34.7,34.1-63.2,66.3-80.4
		c32.2-17.2,69-20.8,103.7-10.3l340.9,103.7c34.7,10.5,63.2,34.1,80.4,66.3c17.2,32.2,20.8,69,10.3,103.7
		c-10.9,35.9-35.5,64.1-66.2,80.5c-30.8,16.4-67.8,21.1-103.7,10.2L212.9,753.6c-34.7-10.5-63.2-34.1-80.4-66.3
		C115.3,655.2,111.7,618.3,122.2,583.7z M563.6,825.1c54.1,16.4,111.5-14.2,127.9-68.3c7.9-26.1,5.2-53.8-7.8-78
		c-12.9-24.2-34.4-42-60.5-49.9l-150.2-45.7l-59.7,196.2L563.6,825.1z M252.9,728.8l107.9,32.8c3.8,1.2,7.7,0.7,11-1.1
		s5.9-4.7,7-8.5c2.3-7.6-2-15.7-9.6-18l-107.9-32.8c-7.6-2.3-15.7,2-18,9.6C241,718.4,245.3,726.5,252.9,728.8z M197.8,712l5.4,1.6
		c3.8,1.2,7.7,0.7,11-1.1s5.9-4.7,7-8.5c2.3-7.6-2-15.7-9.6-18l-5.4-1.6c-7.6-2.3-15.7,2-18,9.6C185.9,701.7,190.2,709.7,197.8,712z
		"/>
	<g>
	</g>
	<g>
	</g>
	<g>
	</g>
	<g>
	</g>
	<g>
	</g>
	<g>
	</g>
	<g>
	</g>
	<g>
	</g>
	<g>
	</g>
	<g>
	</g>
	<g>
	</g>
	<g>
	</g>
	<g>
	</g>
	<g>
	</g>
	<g>
	</g>
</g>
</svg>
